<?xml version="1.0" standalone="no"?>
<!DOCTYPE svg PUBLIC "-//W3C//DTD SVG 20010904//EN"
 "http://www.w3.org/TR/2001/REC-SVG-20010904/DTD/svg10.dtd">
<svg version="1.0" xmlns="http://www.w3.org/2000/svg"
 width="1007.000000pt" height="1007.000000pt" viewBox="0 0 1007.000000 1007.000000"
 preserveAspectRatio="xMidYMid meet">
<metadata>
Created by potrace 1.14, written by Peter Selinger 2001-2017
</metadata>
<g transform="translate(0.000000,1007.000000) scale(0.100000,-0.100000)"
fill="#000000" stroke="none">
<path d="M4644 9840 c-3 -2 -27 -6 -53 -7 -83 -5 -242 -51 -341 -99 -91 -45
-99 -47 -195 -50 -281 -7 -489 -43 -600 -102 -16 -9 -33 -15 -37 -14 -5 1 -8
-3 -8 -8 0 -6 -5 -10 -12 -10 -6 0 -25 -11 -42 -23 -32 -25 -183 -99 -226
-112 -14 -4 -38 -13 -55 -20 -16 -7 -68 -25 -115 -40 -47 -15 -98 -33 -115
-40 -16 -7 -67 -27 -112 -45 -92 -36 -171 -81 -222 -125 -34 -30 -281 -276
-313 -311 -46 -52 -248 -186 -248 -166 0 4 -4 2 -8 -3 -4 -6 -25 -19 -47 -30
-52 -26 -165 -97 -190 -121 -12 -11 -45 -39 -75 -64 -96 -79 -150 -149 -261
-341 -93 -159 -144 -230 -216 -301 -69 -68 -99 -101 -138 -153 -17 -22 -33
-42 -37 -45 -36 -27 -205 -360 -190 -374 3 -3 1 -6 -5 -6 -5 0 -10 -6 -11 -12
-3 -31 -55 -222 -63 -232 -43 -53 -62 -80 -101 -142 -43 -66 -94 -167 -133
-259 -23 -53 -55 -165 -48 -165 3 0 1 -6 -4 -12 -5 -7 -10 -22 -11 -33 0 -11
-5 -48 -11 -83 -6 -35 -8 -109 -4 -165 7 -139 6 -178 -7 -194 -2 -2 -3 -6 -4
-10 -1 -5 -10 -26 -20 -48 -22 -49 -93 -263 -101 -302 -39 -207 -33 -322 30
-569 43 -169 46 -222 20 -339 -25 -111 -25 -375 1 -457 5 -15 9 -35 19 -83 13
-61 72 -201 125 -294 63 -114 89 -170 97 -211 2 -14 8 -43 13 -65 5 -22 12
-71 15 -110 11 -116 41 -246 74 -319 18 -38 35 -82 38 -97 3 -16 9 -29 13 -29
5 0 12 -12 18 -28 14 -41 111 -173 192 -262 57 -63 71 -82 91 -128 55 -127 97
-205 156 -294 36 -54 69 -98 74 -98 5 0 9 -4 9 -10 0 -23 217 -240 240 -240 5
0 10 -4 10 -9 0 -8 140 -105 220 -154 14 -8 46 -46 71 -83 25 -38 77 -116 115
-174 42 -63 107 -142 164 -200 106 -106 167 -142 340 -199 176 -59 233 -84
263 -115 91 -98 135 -139 160 -154 15 -9 27 -19 27 -23 0 -9 135 -89 149 -89
6 0 11 -4 11 -8 0 -4 21 -16 48 -26 134 -51 176 -65 183 -60 4 2 10 0 14 -6 4
-6 10 -8 15 -5 5 3 19 1 33 -4 13 -5 53 -13 88 -16 35 -4 78 -9 95 -10 17 -2
71 -22 120 -45 49 -23 105 -49 124 -57 19 -8 60 -25 90 -38 85 -37 181 -72
220 -81 41 -9 41 -9 60 -16 28 -11 133 -30 184 -34 102 -9 217 -3 299 15 44
10 73 10 115 2 89 -16 97 -18 179 -46 108 -36 138 -40 303 -39 141 0 208 6
280 24 19 5 46 11 60 13 14 3 45 10 70 17 25 7 50 13 57 14 7 1 16 5 19 9 4 4
15 7 23 7 9 0 52 12 96 26 67 22 101 27 215 29 151 3 274 18 400 46 25 6 54
12 64 15 32 6 119 35 153 50 17 8 34 14 38 14 12 0 157 72 200 99 74 47 80 50
112 66 18 8 43 17 55 19 13 3 25 5 28 6 3 2 8 2 13 1 4 0 7 4 7 10 0 5 5 7 10
4 6 -4 16 -3 23 2 7 5 19 9 27 8 8 -1 27 5 42 12 15 7 31 13 35 13 6 0 52 13
123 35 12 4 64 26 108 47 26 12 49 22 52 23 12 1 152 83 220 129 145 98 301
275 332 377 10 34 17 41 75 64 144 57 271 125 320 170 75 70 100 95 118 119
11 15 28 37 39 49 25 30 99 143 132 203 58 106 135 214 180 256 83 74 159 152
186 189 26 35 108 190 113 213 1 6 7 22 12 36 6 14 23 66 37 115 15 50 31 102
36 117 5 14 6 29 3 32 -4 3 -1 6 5 6 7 0 12 7 12 16 0 18 56 133 76 155 8 9
11 19 7 22 -3 4 -1 7 5 7 7 0 12 6 12 14 0 8 3 16 8 18 9 4 72 96 72 106 0 5
9 18 20 30 12 12 18 22 15 22 -3 0 5 17 18 37 32 52 53 107 77 205 33 135 36
166 45 413 7 190 7 190 52 286 36 75 60 134 54 134 -1 0 3 13 9 29 6 16 13 43
15 60 3 17 9 56 14 86 12 70 12 257 0 338 -8 59 -11 78 -24 145 -7 38 -31 128
-40 149 -4 9 -2 41 4 70 18 92 24 159 25 313 1 171 -13 261 -57 385 -28 79
-120 257 -140 271 -5 3 -8 9 -8 13 1 3 -5 19 -13 34 -21 42 -36 103 -41 178
-9 117 -15 155 -40 269 -45 208 -181 465 -325 618 -29 30 -58 75 -71 107 -12
30 -42 98 -67 150 -25 52 -46 97 -47 100 -1 5 -10 20 -89 145 -28 44 -53 82
-56 85 -3 3 -25 30 -49 60 -77 98 -263 280 -286 280 -9 0 -70 44 -73 53 -2 4
-9 7 -16 7 -21 0 -96 59 -96 75 0 8 -4 15 -10 15 -5 0 -10 4 -10 10 0 5 -7 18
-15 27 -8 10 -39 53 -70 96 -31 42 -61 77 -66 77 -5 0 -9 5 -9 12 0 16 -122
134 -192 186 -69 51 -181 108 -228 117 -3 0 -21 6 -40 13 -19 6 -48 13 -64 16
-39 7 -95 44 -139 94 -11 12 -24 22 -28 22 -5 0 -19 10 -32 23 -29 27 -78 69
-99 82 -8 6 -51 35 -94 65 -44 30 -117 73 -164 96 -88 44 -200 87 -200 77 0
-3 -7 0 -15 7 -8 7 -15 10 -15 6 0 -3 -12 -1 -26 4 -28 11 -102 20 -204 24
-78 4 -65 -1 -275 101 -156 76 -281 127 -338 139 -12 3 -33 8 -47 11 -74 17
-295 23 -395 10 -33 -4 -105 -9 -160 -11 -85 -2 -111 1 -174 22 -41 13 -88 27
-105 30 -17 3 -49 9 -71 13 -22 5 -47 9 -55 10 -8 0 -35 3 -60 6 -59 8 -260
11 -266 5z"/>
</g>
</svg>
